<mxfile host="app.diagrams.net" agent="Mozilla/5.0 (Windows NT 10.0; Win64; x64) AppleWebKit/537.36 (KHTML, like Gecko) Chrome/134.0.0.0 Safari/537.36 Edg/134.0.0.0" version="26.1.1">
  <diagram name="第 1 页" id="Cw5b_IyodDQ1-bRxZbsi">
    <mxGraphModel dx="1426" dy="829" grid="1" gridSize="10" guides="1" tooltips="1" connect="1" arrows="1" fold="1" page="1" pageScale="1" pageWidth="827" pageHeight="1169" math="0" shadow="0">
      <root>
        <mxCell id="0" />
        <mxCell id="pBpDnZRo8oRSNYHJt4BO-5" value="未命名图层" style="" parent="0" />
        <mxCell id="pBpDnZRo8oRSNYHJt4BO-103" value="" style="group" parent="pBpDnZRo8oRSNYHJt4BO-5" vertex="1" connectable="0">
          <mxGeometry x="290" y="360" width="266" height="265" as="geometry" />
        </mxCell>
        <mxCell id="pBpDnZRo8oRSNYHJt4BO-101" value="MINI-SFC" style="text;html=1;align=center;verticalAlign=middle;whiteSpace=wrap;rounded=0;fontFamily=Garamond;fontSize=48;fontStyle=1" parent="pBpDnZRo8oRSNYHJt4BO-103" vertex="1">
          <mxGeometry y="212" width="266" height="53" as="geometry" />
        </mxCell>
        <mxCell id="pBpDnZRo8oRSNYHJt4BO-102" value="" style="group" parent="pBpDnZRo8oRSNYHJt4BO-103" vertex="1" connectable="0">
          <mxGeometry x="31" width="212" height="208" as="geometry" />
        </mxCell>
        <mxCell id="pBpDnZRo8oRSNYHJt4BO-57" value="" style="endArrow=none;html=1;rounded=0;strokeWidth=4;exitX=0.226;exitY=0.918;exitDx=0;exitDy=0;exitPerimeter=0;strokeColor=light-dark(#000000,#EDEDED);" parent="pBpDnZRo8oRSNYHJt4BO-102" source="pBpDnZRo8oRSNYHJt4BO-6" edge="1">
          <mxGeometry width="50" height="50" relative="1" as="geometry">
            <mxPoint x="116" y="31" as="sourcePoint" />
            <mxPoint x="82" y="51" as="targetPoint" />
          </mxGeometry>
        </mxCell>
        <mxCell id="pBpDnZRo8oRSNYHJt4BO-100" value="" style="endArrow=none;html=1;rounded=0;strokeWidth=4;strokeColor=light-dark(#07a6b1, #ededed);exitX=0.948;exitY=0.739;exitDx=0;exitDy=0;exitPerimeter=0;" parent="pBpDnZRo8oRSNYHJt4BO-102" source="pBpDnZRo8oRSNYHJt4BO-30" edge="1">
          <mxGeometry width="50" height="50" relative="1" as="geometry">
            <mxPoint x="147" y="76" as="sourcePoint" />
            <mxPoint x="156" y="80" as="targetPoint" />
          </mxGeometry>
        </mxCell>
        <mxCell id="pBpDnZRo8oRSNYHJt4BO-99" value="" style="endArrow=none;html=1;rounded=0;strokeWidth=4;strokeColor=light-dark(#07a6b1, #ededed);exitX=0.338;exitY=0.054;exitDx=0;exitDy=0;exitPerimeter=0;" parent="pBpDnZRo8oRSNYHJt4BO-102" source="pBpDnZRo8oRSNYHJt4BO-30" edge="1">
          <mxGeometry width="50" height="50" relative="1" as="geometry">
            <mxPoint x="143" y="80" as="sourcePoint" />
            <mxPoint x="131" y="55" as="targetPoint" />
          </mxGeometry>
        </mxCell>
        <mxCell id="pBpDnZRo8oRSNYHJt4BO-98" value="" style="endArrow=none;html=1;rounded=0;strokeWidth=4;strokeColor=light-dark(#07a6b1, #ededed);exitX=0.999;exitY=0.372;exitDx=0;exitDy=0;exitPerimeter=0;" parent="pBpDnZRo8oRSNYHJt4BO-102" source="pBpDnZRo8oRSNYHJt4BO-32" edge="1">
          <mxGeometry width="50" height="50" relative="1" as="geometry">
            <mxPoint x="149" y="142" as="sourcePoint" />
            <mxPoint x="155" y="130" as="targetPoint" />
          </mxGeometry>
        </mxCell>
        <mxCell id="pBpDnZRo8oRSNYHJt4BO-97" value="" style="endArrow=none;html=1;rounded=0;strokeWidth=4;strokeColor=light-dark(#07a6b1, #ededed);entryX=0.286;entryY=0.983;entryDx=0;entryDy=0;entryPerimeter=0;" parent="pBpDnZRo8oRSNYHJt4BO-102" target="pBpDnZRo8oRSNYHJt4BO-32" edge="1">
          <mxGeometry width="50" height="50" relative="1" as="geometry">
            <mxPoint x="132" y="154" as="sourcePoint" />
            <mxPoint x="129" y="151" as="targetPoint" />
          </mxGeometry>
        </mxCell>
        <mxCell id="pBpDnZRo8oRSNYHJt4BO-96" value="" style="endArrow=none;html=1;rounded=0;strokeWidth=4;strokeColor=light-dark(#07a6b1, #ededed);entryX=0.657;entryY=0.959;entryDx=0;entryDy=0;entryPerimeter=0;" parent="pBpDnZRo8oRSNYHJt4BO-102" target="pBpDnZRo8oRSNYHJt4BO-36" edge="1">
          <mxGeometry width="50" height="50" relative="1" as="geometry">
            <mxPoint x="79" y="154" as="sourcePoint" />
            <mxPoint x="66" y="140" as="targetPoint" />
          </mxGeometry>
        </mxCell>
        <mxCell id="pBpDnZRo8oRSNYHJt4BO-95" value="" style="endArrow=none;html=1;rounded=0;strokeWidth=4;strokeColor=light-dark(#07a6b1, #ededed);exitX=0.016;exitY=0.364;exitDx=0;exitDy=0;exitPerimeter=0;" parent="pBpDnZRo8oRSNYHJt4BO-102" source="pBpDnZRo8oRSNYHJt4BO-36" edge="1">
          <mxGeometry width="50" height="50" relative="1" as="geometry">
            <mxPoint x="81" y="142" as="sourcePoint" />
            <mxPoint x="56" y="130" as="targetPoint" />
          </mxGeometry>
        </mxCell>
        <mxCell id="pBpDnZRo8oRSNYHJt4BO-94" value="" style="endArrow=none;html=1;rounded=0;strokeWidth=4;strokeColor=light-dark(#07a6b1, #ededed);entryX=0.013;entryY=0.691;entryDx=0;entryDy=0;entryPerimeter=0;" parent="pBpDnZRo8oRSNYHJt4BO-102" target="pBpDnZRo8oRSNYHJt4BO-28" edge="1">
          <mxGeometry width="50" height="50" relative="1" as="geometry">
            <mxPoint x="55" y="80" as="sourcePoint" />
            <mxPoint x="65" y="71" as="targetPoint" />
          </mxGeometry>
        </mxCell>
        <mxCell id="pBpDnZRo8oRSNYHJt4BO-93" value="" style="endArrow=none;html=1;rounded=0;strokeWidth=4;strokeColor=light-dark(#07a6b1, #ededed);exitX=0.617;exitY=0.075;exitDx=0;exitDy=0;exitPerimeter=0;" parent="pBpDnZRo8oRSNYHJt4BO-102" source="pBpDnZRo8oRSNYHJt4BO-28" edge="1">
          <mxGeometry width="50" height="50" relative="1" as="geometry">
            <mxPoint x="89" y="80" as="sourcePoint" />
            <mxPoint x="80" y="55" as="targetPoint" />
          </mxGeometry>
        </mxCell>
        <mxCell id="pBpDnZRo8oRSNYHJt4BO-92" value="" style="endArrow=none;html=1;rounded=0;strokeWidth=4;strokeColor=light-dark(#07a6b1, #ededed);exitX=0.204;exitY=0.144;exitDx=0;exitDy=0;exitPerimeter=0;entryX=0.572;entryY=0.979;entryDx=0;entryDy=0;entryPerimeter=0;" parent="pBpDnZRo8oRSNYHJt4BO-102" source="pBpDnZRo8oRSNYHJt4BO-31" target="pBpDnZRo8oRSNYHJt4BO-30" edge="1">
          <mxGeometry width="50" height="50" relative="1" as="geometry">
            <mxPoint x="143" y="80" as="sourcePoint" />
            <mxPoint x="121" y="71" as="targetPoint" />
          </mxGeometry>
        </mxCell>
        <mxCell id="pBpDnZRo8oRSNYHJt4BO-91" value="" style="endArrow=none;html=1;rounded=0;strokeWidth=4;strokeColor=light-dark(#07a6b1, #ededed);exitX=0.002;exitY=0.391;exitDx=0;exitDy=0;exitPerimeter=0;entryX=0.973;entryY=0.683;entryDx=0;entryDy=0;entryPerimeter=0;" parent="pBpDnZRo8oRSNYHJt4BO-102" source="pBpDnZRo8oRSNYHJt4BO-30" target="pBpDnZRo8oRSNYHJt4BO-29" edge="1">
          <mxGeometry width="50" height="50" relative="1" as="geometry">
            <mxPoint x="89" y="80" as="sourcePoint" />
            <mxPoint x="110" y="72" as="targetPoint" />
          </mxGeometry>
        </mxCell>
        <mxCell id="pBpDnZRo8oRSNYHJt4BO-90" value="" style="endArrow=none;html=1;rounded=0;strokeWidth=4;strokeColor=light-dark(#07a6b1, #ededed);exitX=0.249;exitY=0.908;exitDx=0;exitDy=0;exitPerimeter=0;entryX=0.608;entryY=0.051;entryDx=0;entryDy=0;entryPerimeter=0;" parent="pBpDnZRo8oRSNYHJt4BO-102" source="pBpDnZRo8oRSNYHJt4BO-31" target="pBpDnZRo8oRSNYHJt4BO-32" edge="1">
          <mxGeometry width="50" height="50" relative="1" as="geometry">
            <mxPoint x="121" y="158" as="sourcePoint" />
            <mxPoint x="144" y="149" as="targetPoint" />
          </mxGeometry>
        </mxCell>
        <mxCell id="pBpDnZRo8oRSNYHJt4BO-89" value="" style="endArrow=none;html=1;rounded=0;strokeWidth=4;strokeColor=light-dark(#07a6b1, #ededed);exitX=0.928;exitY=0.271;exitDx=0;exitDy=0;exitPerimeter=0;entryX=0.039;entryY=0.672;entryDx=0;entryDy=0;entryPerimeter=0;" parent="pBpDnZRo8oRSNYHJt4BO-102" source="pBpDnZRo8oRSNYHJt4BO-33" target="pBpDnZRo8oRSNYHJt4BO-32" edge="1">
          <mxGeometry width="50" height="50" relative="1" as="geometry">
            <mxPoint x="111" y="158" as="sourcePoint" />
            <mxPoint x="88" y="149" as="targetPoint" />
          </mxGeometry>
        </mxCell>
        <mxCell id="pBpDnZRo8oRSNYHJt4BO-88" value="" style="endArrow=none;html=1;rounded=0;strokeWidth=4;strokeColor=light-dark(#07a6b1, #ededed);exitX=0.097;exitY=0.272;exitDx=0;exitDy=0;exitPerimeter=0;entryX=1;entryY=0.68;entryDx=0;entryDy=0;entryPerimeter=0;" parent="pBpDnZRo8oRSNYHJt4BO-102" source="pBpDnZRo8oRSNYHJt4BO-33" target="pBpDnZRo8oRSNYHJt4BO-36" edge="1">
          <mxGeometry width="50" height="50" relative="1" as="geometry">
            <mxPoint x="81" y="142" as="sourcePoint" />
            <mxPoint x="72" y="120" as="targetPoint" />
          </mxGeometry>
        </mxCell>
        <mxCell id="pBpDnZRo8oRSNYHJt4BO-87" value="" style="endArrow=none;html=1;rounded=0;strokeWidth=4;strokeColor=light-dark(#07a6b1, #ededed);exitX=0.389;exitY=0.058;exitDx=0;exitDy=0;exitPerimeter=0;entryX=0.689;entryY=0.965;entryDx=0;entryDy=0;entryPerimeter=0;" parent="pBpDnZRo8oRSNYHJt4BO-102" source="pBpDnZRo8oRSNYHJt4BO-36" target="pBpDnZRo8oRSNYHJt4BO-35" edge="1">
          <mxGeometry width="50" height="50" relative="1" as="geometry">
            <mxPoint x="81" y="87" as="sourcePoint" />
            <mxPoint x="72" y="109" as="targetPoint" />
          </mxGeometry>
        </mxCell>
        <mxCell id="pBpDnZRo8oRSNYHJt4BO-86" value="" style="endArrow=none;html=1;rounded=0;strokeWidth=4;strokeColor=light-dark(#07a6b1, #ededed);exitX=0.337;exitY=0.97;exitDx=0;exitDy=0;exitPerimeter=0;entryX=0.664;entryY=0.049;entryDx=0;entryDy=0;entryPerimeter=0;" parent="pBpDnZRo8oRSNYHJt4BO-102" source="pBpDnZRo8oRSNYHJt4BO-28" target="pBpDnZRo8oRSNYHJt4BO-35" edge="1">
          <mxGeometry width="50" height="50" relative="1" as="geometry">
            <mxPoint x="89" y="80" as="sourcePoint" />
            <mxPoint x="110" y="72" as="targetPoint" />
          </mxGeometry>
        </mxCell>
        <mxCell id="pBpDnZRo8oRSNYHJt4BO-85" value="" style="endArrow=none;html=1;rounded=0;strokeWidth=4;strokeColor=light-dark(#07a6b1, #ededed);exitX=0.979;exitY=0.406;exitDx=0;exitDy=0;exitPerimeter=0;entryX=0.002;entryY=0.711;entryDx=0;entryDy=0;entryPerimeter=0;" parent="pBpDnZRo8oRSNYHJt4BO-102" source="pBpDnZRo8oRSNYHJt4BO-28" target="pBpDnZRo8oRSNYHJt4BO-29" edge="1">
          <mxGeometry width="50" height="50" relative="1" as="geometry">
            <mxPoint x="79" y="101" as="sourcePoint" />
            <mxPoint x="99" y="61" as="targetPoint" />
          </mxGeometry>
        </mxCell>
        <mxCell id="pBpDnZRo8oRSNYHJt4BO-3" value="" style="ellipse;whiteSpace=wrap;html=1;aspect=fixed;strokeWidth=4;fillStyle=auto;fillColor=none;" parent="pBpDnZRo8oRSNYHJt4BO-102" vertex="1">
          <mxGeometry x="27" y="27" width="21" height="21" as="geometry" />
        </mxCell>
        <mxCell id="pBpDnZRo8oRSNYHJt4BO-4" value="" style="ellipse;whiteSpace=wrap;html=1;aspect=fixed;strokeWidth=4;fillStyle=auto;fillColor=none;" parent="pBpDnZRo8oRSNYHJt4BO-102" vertex="1">
          <mxGeometry y="95" width="21" height="21" as="geometry" />
        </mxCell>
        <mxCell id="pBpDnZRo8oRSNYHJt4BO-6" value="" style="ellipse;whiteSpace=wrap;html=1;aspect=fixed;strokeWidth=4;fillStyle=auto;fillColor=none;" parent="pBpDnZRo8oRSNYHJt4BO-102" vertex="1">
          <mxGeometry x="95" width="21" height="21" as="geometry" />
        </mxCell>
        <mxCell id="pBpDnZRo8oRSNYHJt4BO-7" value="" style="ellipse;whiteSpace=wrap;html=1;aspect=fixed;strokeWidth=4;fillStyle=auto;fillColor=none;" parent="pBpDnZRo8oRSNYHJt4BO-102" vertex="1">
          <mxGeometry x="164" y="27" width="21" height="21" as="geometry" />
        </mxCell>
        <mxCell id="pBpDnZRo8oRSNYHJt4BO-8" value="" style="ellipse;whiteSpace=wrap;html=1;aspect=fixed;strokeWidth=4;fillStyle=auto;fillColor=none;" parent="pBpDnZRo8oRSNYHJt4BO-102" vertex="1">
          <mxGeometry x="27" y="161" width="21" height="21" as="geometry" />
        </mxCell>
        <mxCell id="pBpDnZRo8oRSNYHJt4BO-9" value="" style="ellipse;whiteSpace=wrap;html=1;aspect=fixed;strokeWidth=4;fillStyle=auto;fillColor=none;" parent="pBpDnZRo8oRSNYHJt4BO-102" vertex="1">
          <mxGeometry x="96" y="187" width="21" height="21" as="geometry" />
        </mxCell>
        <mxCell id="pBpDnZRo8oRSNYHJt4BO-10" value="" style="ellipse;whiteSpace=wrap;html=1;aspect=fixed;strokeWidth=4;fillStyle=auto;fillColor=none;" parent="pBpDnZRo8oRSNYHJt4BO-102" vertex="1">
          <mxGeometry x="95" y="95" width="21" height="21" as="geometry" />
        </mxCell>
        <mxCell id="pBpDnZRo8oRSNYHJt4BO-11" value="" style="ellipse;whiteSpace=wrap;html=1;aspect=fixed;strokeWidth=4;fillStyle=auto;fillColor=none;" parent="pBpDnZRo8oRSNYHJt4BO-102" vertex="1">
          <mxGeometry x="191" y="94" width="21" height="21" as="geometry" />
        </mxCell>
        <mxCell id="pBpDnZRo8oRSNYHJt4BO-12" value="" style="ellipse;whiteSpace=wrap;html=1;aspect=fixed;strokeWidth=4;fillStyle=auto;fillColor=none;" parent="pBpDnZRo8oRSNYHJt4BO-102" vertex="1">
          <mxGeometry x="164" y="161" width="21" height="21" as="geometry" />
        </mxCell>
        <mxCell id="pBpDnZRo8oRSNYHJt4BO-18" value="" style="endArrow=none;html=1;rounded=0;entryX=0.274;entryY=0.966;entryDx=0;entryDy=0;entryPerimeter=0;exitX=0.655;exitY=0.017;exitDx=0;exitDy=0;exitPerimeter=0;strokeWidth=4;" parent="pBpDnZRo8oRSNYHJt4BO-102" source="pBpDnZRo8oRSNYHJt4BO-41" target="pBpDnZRo8oRSNYHJt4BO-3" edge="1">
          <mxGeometry width="50" height="50" relative="1" as="geometry">
            <mxPoint x="-41" y="111" as="sourcePoint" />
            <mxPoint x="9" y="61" as="targetPoint" />
          </mxGeometry>
        </mxCell>
        <mxCell id="pBpDnZRo8oRSNYHJt4BO-19" value="" style="endArrow=none;html=1;rounded=0;entryX=0.281;entryY=0.068;entryDx=0;entryDy=0;entryPerimeter=0;exitX=0.682;exitY=0.975;exitDx=0;exitDy=0;exitPerimeter=0;strokeWidth=4;" parent="pBpDnZRo8oRSNYHJt4BO-102" source="pBpDnZRo8oRSNYHJt4BO-43" target="pBpDnZRo8oRSNYHJt4BO-8" edge="1">
          <mxGeometry width="50" height="50" relative="1" as="geometry">
            <mxPoint x="24" y="104" as="sourcePoint" />
            <mxPoint x="43" y="57" as="targetPoint" />
          </mxGeometry>
        </mxCell>
        <mxCell id="pBpDnZRo8oRSNYHJt4BO-20" value="" style="endArrow=none;html=1;rounded=0;entryX=0.936;entryY=0.747;entryDx=0;entryDy=0;entryPerimeter=0;exitX=0.007;exitY=0.413;exitDx=0;exitDy=0;exitPerimeter=0;strokeWidth=4;" parent="pBpDnZRo8oRSNYHJt4BO-102" source="pBpDnZRo8oRSNYHJt4BO-45" target="pBpDnZRo8oRSNYHJt4BO-8" edge="1">
          <mxGeometry width="50" height="50" relative="1" as="geometry">
            <mxPoint x="24" y="125" as="sourcePoint" />
            <mxPoint x="43" y="172" as="targetPoint" />
          </mxGeometry>
        </mxCell>
        <mxCell id="pBpDnZRo8oRSNYHJt4BO-21" value="" style="endArrow=none;html=1;rounded=0;entryX=0.5;entryY=0;entryDx=0;entryDy=0;strokeWidth=4;exitX=0.5;exitY=1;exitDx=0;exitDy=0;" parent="pBpDnZRo8oRSNYHJt4BO-102" source="pBpDnZRo8oRSNYHJt4BO-10" target="pBpDnZRo8oRSNYHJt4BO-33" edge="1">
          <mxGeometry width="50" height="50" relative="1" as="geometry">
            <mxPoint x="109" y="131" as="sourcePoint" />
            <mxPoint x="57" y="187" as="targetPoint" />
          </mxGeometry>
        </mxCell>
        <mxCell id="pBpDnZRo8oRSNYHJt4BO-22" value="" style="endArrow=none;html=1;rounded=0;entryX=0.5;entryY=0;entryDx=0;entryDy=0;strokeWidth=4;exitX=0.5;exitY=1;exitDx=0;exitDy=0;" parent="pBpDnZRo8oRSNYHJt4BO-102" source="pBpDnZRo8oRSNYHJt4BO-6" target="pBpDnZRo8oRSNYHJt4BO-29" edge="1">
          <mxGeometry width="50" height="50" relative="1" as="geometry">
            <mxPoint x="116" y="126" as="sourcePoint" />
            <mxPoint x="117" y="197" as="targetPoint" />
          </mxGeometry>
        </mxCell>
        <mxCell id="pBpDnZRo8oRSNYHJt4BO-23" value="" style="endArrow=none;html=1;rounded=0;entryX=0.944;entryY=0.255;entryDx=0;entryDy=0;entryPerimeter=0;strokeWidth=4;exitX=0.014;exitY=0.674;exitDx=0;exitDy=0;exitPerimeter=0;" parent="pBpDnZRo8oRSNYHJt4BO-102" source="pBpDnZRo8oRSNYHJt4BO-37" target="pBpDnZRo8oRSNYHJt4BO-3" edge="1">
          <mxGeometry width="50" height="50" relative="1" as="geometry">
            <mxPoint x="79" y="21" as="sourcePoint" />
            <mxPoint x="43" y="57" as="targetPoint" />
          </mxGeometry>
        </mxCell>
        <mxCell id="pBpDnZRo8oRSNYHJt4BO-24" value="" style="endArrow=none;html=1;rounded=0;entryX=0.032;entryY=0.263;entryDx=0;entryDy=0;entryPerimeter=0;strokeWidth=4;exitX=0.982;exitY=0.649;exitDx=0;exitDy=0;exitPerimeter=0;" parent="pBpDnZRo8oRSNYHJt4BO-102" source="pBpDnZRo8oRSNYHJt4BO-39" target="pBpDnZRo8oRSNYHJt4BO-7" edge="1">
          <mxGeometry width="50" height="50" relative="1" as="geometry">
            <mxPoint x="105" y="24" as="sourcePoint" />
            <mxPoint x="57" y="42" as="targetPoint" />
          </mxGeometry>
        </mxCell>
        <mxCell id="pBpDnZRo8oRSNYHJt4BO-25" value="" style="endArrow=none;html=1;rounded=0;exitX=0.99;exitY=0.414;exitDx=0;exitDy=0;exitPerimeter=0;strokeWidth=4;entryX=0.05;entryY=0.763;entryDx=0;entryDy=0;entryPerimeter=0;" parent="pBpDnZRo8oRSNYHJt4BO-102" source="pBpDnZRo8oRSNYHJt4BO-51" target="pBpDnZRo8oRSNYHJt4BO-12" edge="1">
          <mxGeometry width="50" height="50" relative="1" as="geometry">
            <mxPoint x="106" y="206" as="sourcePoint" />
            <mxPoint x="179" y="201" as="targetPoint" />
          </mxGeometry>
        </mxCell>
        <mxCell id="pBpDnZRo8oRSNYHJt4BO-26" value="" style="endArrow=none;html=1;rounded=0;exitX=0.73;exitY=0.057;exitDx=0;exitDy=0;exitPerimeter=0;strokeWidth=4;entryX=0.324;entryY=0.972;entryDx=0;entryDy=0;entryPerimeter=0;" parent="pBpDnZRo8oRSNYHJt4BO-102" source="pBpDnZRo8oRSNYHJt4BO-49" target="pBpDnZRo8oRSNYHJt4BO-11" edge="1">
          <mxGeometry width="50" height="50" relative="1" as="geometry">
            <mxPoint x="127" y="206" as="sourcePoint" />
            <mxPoint x="239" y="151" as="targetPoint" />
          </mxGeometry>
        </mxCell>
        <mxCell id="pBpDnZRo8oRSNYHJt4BO-27" value="" style="endArrow=none;html=1;rounded=0;entryX=0.717;entryY=0.948;entryDx=0;entryDy=0;entryPerimeter=0;strokeWidth=4;exitX=0.344;exitY=0.02;exitDx=0;exitDy=0;exitPerimeter=0;" parent="pBpDnZRo8oRSNYHJt4BO-102" source="pBpDnZRo8oRSNYHJt4BO-47" target="pBpDnZRo8oRSNYHJt4BO-7" edge="1">
          <mxGeometry width="50" height="50" relative="1" as="geometry">
            <mxPoint x="126" y="24" as="sourcePoint" />
            <mxPoint x="175" y="43" as="targetPoint" />
          </mxGeometry>
        </mxCell>
        <mxCell id="pBpDnZRo8oRSNYHJt4BO-28" value="" style="ellipse;whiteSpace=wrap;html=1;aspect=fixed;strokeWidth=4;fillStyle=auto;fillColor=none;" parent="pBpDnZRo8oRSNYHJt4BO-102" vertex="1">
          <mxGeometry x="67" y="65" width="12" height="12" as="geometry" />
        </mxCell>
        <mxCell id="pBpDnZRo8oRSNYHJt4BO-29" value="" style="ellipse;whiteSpace=wrap;html=1;aspect=fixed;strokeWidth=4;fillStyle=solid;fillColor=#000000;gradientColor=none;" parent="pBpDnZRo8oRSNYHJt4BO-102" vertex="1">
          <mxGeometry x="99.5" y="53" width="12" height="12" as="geometry" />
        </mxCell>
        <mxCell id="pBpDnZRo8oRSNYHJt4BO-30" value="" style="ellipse;whiteSpace=wrap;html=1;aspect=fixed;strokeWidth=4;fillStyle=auto;fillColor=none;" parent="pBpDnZRo8oRSNYHJt4BO-102" vertex="1">
          <mxGeometry x="133" y="65" width="12" height="12" as="geometry" />
        </mxCell>
        <mxCell id="pBpDnZRo8oRSNYHJt4BO-31" value="" style="ellipse;whiteSpace=wrap;html=1;aspect=fixed;strokeWidth=4;fillStyle=auto;fillColor=none;" parent="pBpDnZRo8oRSNYHJt4BO-102" vertex="1">
          <mxGeometry x="147" y="98.5" width="12" height="12" as="geometry" />
        </mxCell>
        <mxCell id="pBpDnZRo8oRSNYHJt4BO-32" value="" style="ellipse;whiteSpace=wrap;html=1;aspect=fixed;strokeWidth=4;fillStyle=auto;fillColor=none;" parent="pBpDnZRo8oRSNYHJt4BO-102" vertex="1">
          <mxGeometry x="134" y="131" width="12" height="12" as="geometry" />
        </mxCell>
        <mxCell id="pBpDnZRo8oRSNYHJt4BO-33" value="" style="ellipse;whiteSpace=wrap;html=1;aspect=fixed;strokeWidth=4;fillStyle=solid;fillColor=#000000;" parent="pBpDnZRo8oRSNYHJt4BO-102" vertex="1">
          <mxGeometry x="99.5" y="145" width="12" height="12" as="geometry" />
        </mxCell>
        <mxCell id="pBpDnZRo8oRSNYHJt4BO-34" value="" style="endArrow=none;html=1;rounded=0;entryX=0.5;entryY=0;entryDx=0;entryDy=0;strokeWidth=4;exitX=0.5;exitY=1;exitDx=0;exitDy=0;" parent="pBpDnZRo8oRSNYHJt4BO-102" source="pBpDnZRo8oRSNYHJt4BO-33" target="pBpDnZRo8oRSNYHJt4BO-9" edge="1">
          <mxGeometry width="50" height="50" relative="1" as="geometry">
            <mxPoint x="116" y="126" as="sourcePoint" />
            <mxPoint x="116" y="155" as="targetPoint" />
          </mxGeometry>
        </mxCell>
        <mxCell id="pBpDnZRo8oRSNYHJt4BO-35" value="" style="ellipse;whiteSpace=wrap;html=1;aspect=fixed;strokeWidth=4;fillStyle=auto;fillColor=none;" parent="pBpDnZRo8oRSNYHJt4BO-102" vertex="1">
          <mxGeometry x="54" y="98.5" width="12" height="12" as="geometry" />
        </mxCell>
        <mxCell id="pBpDnZRo8oRSNYHJt4BO-36" value="" style="ellipse;whiteSpace=wrap;html=1;aspect=fixed;strokeWidth=4;fillStyle=auto;fillColor=none;" parent="pBpDnZRo8oRSNYHJt4BO-102" vertex="1">
          <mxGeometry x="66" y="131" width="12" height="12" as="geometry" />
        </mxCell>
        <mxCell id="pBpDnZRo8oRSNYHJt4BO-38" value="" style="endArrow=none;html=1;rounded=0;entryX=0.944;entryY=0.255;entryDx=0;entryDy=0;entryPerimeter=0;strokeWidth=4;exitX=0.014;exitY=0.674;exitDx=0;exitDy=0;exitPerimeter=0;" parent="pBpDnZRo8oRSNYHJt4BO-102" source="pBpDnZRo8oRSNYHJt4BO-6" target="pBpDnZRo8oRSNYHJt4BO-37" edge="1">
          <mxGeometry width="50" height="50" relative="1" as="geometry">
            <mxPoint x="95" y="14" as="sourcePoint" />
            <mxPoint x="47" y="32" as="targetPoint" />
          </mxGeometry>
        </mxCell>
        <mxCell id="pBpDnZRo8oRSNYHJt4BO-37" value="" style="ellipse;whiteSpace=wrap;html=1;aspect=fixed;strokeWidth=4;fillStyle=solid;fillColor=#000000;gradientColor=none;" parent="pBpDnZRo8oRSNYHJt4BO-102" vertex="1">
          <mxGeometry x="65" y="17" width="12" height="12" as="geometry" />
        </mxCell>
        <mxCell id="pBpDnZRo8oRSNYHJt4BO-40" value="" style="endArrow=none;html=1;rounded=0;entryX=0.032;entryY=0.263;entryDx=0;entryDy=0;entryPerimeter=0;strokeWidth=4;exitX=0.982;exitY=0.649;exitDx=0;exitDy=0;exitPerimeter=0;" parent="pBpDnZRo8oRSNYHJt4BO-102" source="pBpDnZRo8oRSNYHJt4BO-6" target="pBpDnZRo8oRSNYHJt4BO-39" edge="1">
          <mxGeometry width="50" height="50" relative="1" as="geometry">
            <mxPoint x="116" y="14" as="sourcePoint" />
            <mxPoint x="165" y="33" as="targetPoint" />
          </mxGeometry>
        </mxCell>
        <mxCell id="pBpDnZRo8oRSNYHJt4BO-39" value="" style="ellipse;whiteSpace=wrap;html=1;aspect=fixed;strokeWidth=4;fillStyle=solid;fillColor=#000000;gradientColor=none;" parent="pBpDnZRo8oRSNYHJt4BO-102" vertex="1">
          <mxGeometry x="134" y="17" width="12" height="12" as="geometry" />
        </mxCell>
        <mxCell id="pBpDnZRo8oRSNYHJt4BO-42" value="" style="endArrow=none;html=1;rounded=0;entryX=0.274;entryY=0.966;entryDx=0;entryDy=0;entryPerimeter=0;exitX=0.655;exitY=0.017;exitDx=0;exitDy=0;exitPerimeter=0;strokeWidth=4;" parent="pBpDnZRo8oRSNYHJt4BO-102" source="pBpDnZRo8oRSNYHJt4BO-4" target="pBpDnZRo8oRSNYHJt4BO-41" edge="1">
          <mxGeometry width="50" height="50" relative="1" as="geometry">
            <mxPoint x="14" y="95" as="sourcePoint" />
            <mxPoint x="33" y="47" as="targetPoint" />
          </mxGeometry>
        </mxCell>
        <mxCell id="pBpDnZRo8oRSNYHJt4BO-41" value="" style="ellipse;whiteSpace=wrap;html=1;aspect=fixed;strokeWidth=4;fillStyle=solid;fillColor=#000000;gradientColor=none;" parent="pBpDnZRo8oRSNYHJt4BO-102" vertex="1">
          <mxGeometry x="17" y="66" width="12" height="12" as="geometry" />
        </mxCell>
        <mxCell id="pBpDnZRo8oRSNYHJt4BO-44" value="" style="endArrow=none;html=1;rounded=0;entryX=0.281;entryY=0.068;entryDx=0;entryDy=0;entryPerimeter=0;exitX=0.682;exitY=0.975;exitDx=0;exitDy=0;exitPerimeter=0;strokeWidth=4;" parent="pBpDnZRo8oRSNYHJt4BO-102" source="pBpDnZRo8oRSNYHJt4BO-4" target="pBpDnZRo8oRSNYHJt4BO-43" edge="1">
          <mxGeometry width="50" height="50" relative="1" as="geometry">
            <mxPoint x="14" y="115" as="sourcePoint" />
            <mxPoint x="33" y="162" as="targetPoint" />
          </mxGeometry>
        </mxCell>
        <mxCell id="pBpDnZRo8oRSNYHJt4BO-43" value="" style="ellipse;whiteSpace=wrap;html=1;aspect=fixed;strokeWidth=4;fillStyle=solid;fillColor=#000000;gradientColor=none;" parent="pBpDnZRo8oRSNYHJt4BO-102" vertex="1">
          <mxGeometry x="18" y="134" width="12" height="12" as="geometry" />
        </mxCell>
        <mxCell id="pBpDnZRo8oRSNYHJt4BO-46" value="" style="endArrow=none;html=1;rounded=0;entryX=0.936;entryY=0.747;entryDx=0;entryDy=0;entryPerimeter=0;exitX=0.007;exitY=0.413;exitDx=0;exitDy=0;exitPerimeter=0;strokeWidth=4;" parent="pBpDnZRo8oRSNYHJt4BO-102" source="pBpDnZRo8oRSNYHJt4BO-9" target="pBpDnZRo8oRSNYHJt4BO-45" edge="1">
          <mxGeometry width="50" height="50" relative="1" as="geometry">
            <mxPoint x="96" y="196" as="sourcePoint" />
            <mxPoint x="47" y="177" as="targetPoint" />
          </mxGeometry>
        </mxCell>
        <mxCell id="pBpDnZRo8oRSNYHJt4BO-45" value="" style="ellipse;whiteSpace=wrap;html=1;aspect=fixed;strokeWidth=4;fillStyle=solid;fillColor=#000000;" parent="pBpDnZRo8oRSNYHJt4BO-102" vertex="1">
          <mxGeometry x="66" y="179" width="12" height="12" as="geometry" />
        </mxCell>
        <mxCell id="pBpDnZRo8oRSNYHJt4BO-48" value="" style="endArrow=none;html=1;rounded=0;entryX=0.717;entryY=0.948;entryDx=0;entryDy=0;entryPerimeter=0;strokeWidth=4;exitX=0.344;exitY=0.02;exitDx=0;exitDy=0;exitPerimeter=0;" parent="pBpDnZRo8oRSNYHJt4BO-102" source="pBpDnZRo8oRSNYHJt4BO-11" target="pBpDnZRo8oRSNYHJt4BO-47" edge="1">
          <mxGeometry width="50" height="50" relative="1" as="geometry">
            <mxPoint x="198" y="94" as="sourcePoint" />
            <mxPoint x="179" y="47" as="targetPoint" />
          </mxGeometry>
        </mxCell>
        <mxCell id="pBpDnZRo8oRSNYHJt4BO-47" value="" style="ellipse;whiteSpace=wrap;html=1;aspect=fixed;strokeWidth=4;fillStyle=solid;fillColor=#000000;gradientColor=none;" parent="pBpDnZRo8oRSNYHJt4BO-102" vertex="1">
          <mxGeometry x="182" y="66" width="12" height="12" as="geometry" />
        </mxCell>
        <mxCell id="pBpDnZRo8oRSNYHJt4BO-50" value="" style="endArrow=none;html=1;rounded=0;exitX=0.73;exitY=0.057;exitDx=0;exitDy=0;exitPerimeter=0;strokeWidth=4;entryX=0.324;entryY=0.972;entryDx=0;entryDy=0;entryPerimeter=0;" parent="pBpDnZRo8oRSNYHJt4BO-102" source="pBpDnZRo8oRSNYHJt4BO-12" target="pBpDnZRo8oRSNYHJt4BO-49" edge="1">
          <mxGeometry width="50" height="50" relative="1" as="geometry">
            <mxPoint x="179" y="162" as="sourcePoint" />
            <mxPoint x="198" y="114" as="targetPoint" />
          </mxGeometry>
        </mxCell>
        <mxCell id="pBpDnZRo8oRSNYHJt4BO-49" value="" style="ellipse;whiteSpace=wrap;html=1;aspect=fixed;strokeWidth=4;fillStyle=solid;fillColor=#000000;" parent="pBpDnZRo8oRSNYHJt4BO-102" vertex="1">
          <mxGeometry x="182" y="133" width="12" height="12" as="geometry" />
        </mxCell>
        <mxCell id="pBpDnZRo8oRSNYHJt4BO-52" value="" style="endArrow=none;html=1;rounded=0;exitX=0.99;exitY=0.414;exitDx=0;exitDy=0;exitPerimeter=0;strokeWidth=4;entryX=0.05;entryY=0.763;entryDx=0;entryDy=0;entryPerimeter=0;" parent="pBpDnZRo8oRSNYHJt4BO-102" source="pBpDnZRo8oRSNYHJt4BO-9" target="pBpDnZRo8oRSNYHJt4BO-51" edge="1">
          <mxGeometry width="50" height="50" relative="1" as="geometry">
            <mxPoint x="117" y="196" as="sourcePoint" />
            <mxPoint x="165" y="177" as="targetPoint" />
          </mxGeometry>
        </mxCell>
        <mxCell id="pBpDnZRo8oRSNYHJt4BO-51" value="" style="ellipse;whiteSpace=wrap;html=1;aspect=fixed;strokeWidth=4;fillStyle=solid;fillColor=#000000;" parent="pBpDnZRo8oRSNYHJt4BO-102" vertex="1">
          <mxGeometry x="135" y="180" width="12" height="12" as="geometry" />
        </mxCell>
        <mxCell id="pBpDnZRo8oRSNYHJt4BO-53" value="" style="endArrow=none;html=1;rounded=0;entryX=0.994;entryY=0.57;entryDx=0;entryDy=0;entryPerimeter=0;strokeWidth=4;exitX=0.094;exitY=0.223;exitDx=0;exitDy=0;exitPerimeter=0;" parent="pBpDnZRo8oRSNYHJt4BO-102" source="pBpDnZRo8oRSNYHJt4BO-29" target="pBpDnZRo8oRSNYHJt4BO-3" edge="1">
          <mxGeometry width="50" height="50" relative="1" as="geometry">
            <mxPoint x="75" y="35" as="sourcePoint" />
            <mxPoint x="57" y="42" as="targetPoint" />
          </mxGeometry>
        </mxCell>
        <mxCell id="pBpDnZRo8oRSNYHJt4BO-54" value="" style="endArrow=none;html=1;rounded=0;entryX=0.554;entryY=1;entryDx=0;entryDy=0;entryPerimeter=0;strokeWidth=4;exitX=0.236;exitY=0.149;exitDx=0;exitDy=0;exitPerimeter=0;" parent="pBpDnZRo8oRSNYHJt4BO-102" source="pBpDnZRo8oRSNYHJt4BO-35" target="pBpDnZRo8oRSNYHJt4BO-3" edge="1">
          <mxGeometry width="50" height="50" relative="1" as="geometry">
            <mxPoint x="50" y="82" as="sourcePoint" />
            <mxPoint x="43" y="57" as="targetPoint" />
          </mxGeometry>
        </mxCell>
        <mxCell id="pBpDnZRo8oRSNYHJt4BO-55" value="" style="endArrow=none;html=1;rounded=0;strokeWidth=4;exitX=0.897;exitY=0.241;exitDx=0;exitDy=0;exitPerimeter=0;" parent="pBpDnZRo8oRSNYHJt4BO-102" source="pBpDnZRo8oRSNYHJt4BO-4" edge="1">
          <mxGeometry width="50" height="50" relative="1" as="geometry">
            <mxPoint x="59" y="91" as="sourcePoint" />
            <mxPoint x="51" y="82" as="targetPoint" />
          </mxGeometry>
        </mxCell>
        <mxCell id="pBpDnZRo8oRSNYHJt4BO-56" value="" style="endArrow=none;html=1;rounded=0;entryX=0.892;entryY=0.833;entryDx=0;entryDy=0;entryPerimeter=0;strokeWidth=4;exitX=0.077;exitY=0.157;exitDx=0;exitDy=0;exitPerimeter=0;" parent="pBpDnZRo8oRSNYHJt4BO-102" source="pBpDnZRo8oRSNYHJt4BO-28" target="pBpDnZRo8oRSNYHJt4BO-3" edge="1">
          <mxGeometry width="50" height="50" relative="1" as="geometry">
            <mxPoint x="60" y="92" as="sourcePoint" />
            <mxPoint x="49" y="58" as="targetPoint" />
          </mxGeometry>
        </mxCell>
        <mxCell id="pBpDnZRo8oRSNYHJt4BO-58" value="" style="endArrow=none;html=1;rounded=0;strokeWidth=4;exitX=0.808;exitY=0.885;exitDx=0;exitDy=0;exitPerimeter=0;" parent="pBpDnZRo8oRSNYHJt4BO-102" source="pBpDnZRo8oRSNYHJt4BO-6" edge="1">
          <mxGeometry width="50" height="50" relative="1" as="geometry">
            <mxPoint x="110" y="29" as="sourcePoint" />
            <mxPoint x="129" y="51" as="targetPoint" />
          </mxGeometry>
        </mxCell>
        <mxCell id="pBpDnZRo8oRSNYHJt4BO-59" value="" style="endArrow=none;html=1;rounded=0;entryX=-0.011;entryY=0.565;entryDx=0;entryDy=0;entryPerimeter=0;strokeWidth=4;exitX=0.912;exitY=0.269;exitDx=0;exitDy=0;exitPerimeter=0;" parent="pBpDnZRo8oRSNYHJt4BO-102" source="pBpDnZRo8oRSNYHJt4BO-29" target="pBpDnZRo8oRSNYHJt4BO-7" edge="1">
          <mxGeometry width="50" height="50" relative="1" as="geometry">
            <mxPoint x="111" y="66" as="sourcePoint" />
            <mxPoint x="58" y="49" as="targetPoint" />
          </mxGeometry>
        </mxCell>
        <mxCell id="pBpDnZRo8oRSNYHJt4BO-60" value="" style="endArrow=none;html=1;rounded=0;entryX=1.001;entryY=0.47;entryDx=0;entryDy=0;strokeWidth=4;exitX=0;exitY=0.5;exitDx=0;exitDy=0;entryPerimeter=0;" parent="pBpDnZRo8oRSNYHJt4BO-102" source="pBpDnZRo8oRSNYHJt4BO-35" target="pBpDnZRo8oRSNYHJt4BO-4" edge="1">
          <mxGeometry width="50" height="50" relative="1" as="geometry">
            <mxPoint x="60" y="92" as="sourcePoint" />
            <mxPoint x="49" y="58" as="targetPoint" />
          </mxGeometry>
        </mxCell>
        <mxCell id="pBpDnZRo8oRSNYHJt4BO-62" value="" style="endArrow=none;html=1;rounded=0;entryX=0.003;entryY=0.463;entryDx=0;entryDy=0;strokeWidth=4;exitX=1;exitY=0.5;exitDx=0;exitDy=0;entryPerimeter=0;" parent="pBpDnZRo8oRSNYHJt4BO-102" source="pBpDnZRo8oRSNYHJt4BO-35" target="pBpDnZRo8oRSNYHJt4BO-10" edge="1">
          <mxGeometry width="50" height="50" relative="1" as="geometry">
            <mxPoint x="64" y="115" as="sourcePoint" />
            <mxPoint x="31" y="115" as="targetPoint" />
          </mxGeometry>
        </mxCell>
        <mxCell id="pBpDnZRo8oRSNYHJt4BO-63" value="" style="endArrow=none;html=1;rounded=0;entryX=0;entryY=0.5;entryDx=0;entryDy=0;strokeWidth=4;exitX=0.999;exitY=0.467;exitDx=0;exitDy=0;exitPerimeter=0;" parent="pBpDnZRo8oRSNYHJt4BO-102" source="pBpDnZRo8oRSNYHJt4BO-10" target="pBpDnZRo8oRSNYHJt4BO-31" edge="1">
          <mxGeometry width="50" height="50" relative="1" as="geometry">
            <mxPoint x="124.5" y="116" as="sourcePoint" />
            <mxPoint x="153.5" y="116" as="targetPoint" />
          </mxGeometry>
        </mxCell>
        <mxCell id="pBpDnZRo8oRSNYHJt4BO-64" value="" style="endArrow=none;html=1;rounded=0;entryX=0;entryY=0.5;entryDx=0;entryDy=0;strokeWidth=4;exitX=1.002;exitY=0.523;exitDx=0;exitDy=0;exitPerimeter=0;" parent="pBpDnZRo8oRSNYHJt4BO-102" source="pBpDnZRo8oRSNYHJt4BO-31" target="pBpDnZRo8oRSNYHJt4BO-11" edge="1">
          <mxGeometry width="50" height="50" relative="1" as="geometry">
            <mxPoint x="159" y="115" as="sourcePoint" />
            <mxPoint x="190" y="114" as="targetPoint" />
          </mxGeometry>
        </mxCell>
        <mxCell id="pBpDnZRo8oRSNYHJt4BO-65" value="" style="endArrow=none;html=1;rounded=0;strokeWidth=4;exitX=0.1;exitY=0.873;exitDx=0;exitDy=0;exitPerimeter=0;entryX=1;entryY=0;entryDx=0;entryDy=0;" parent="pBpDnZRo8oRSNYHJt4BO-102" source="pBpDnZRo8oRSNYHJt4BO-7" target="pBpDnZRo8oRSNYHJt4BO-30" edge="1">
          <mxGeometry width="50" height="50" relative="1" as="geometry">
            <mxPoint x="122" y="29" as="sourcePoint" />
            <mxPoint x="139" y="61" as="targetPoint" />
          </mxGeometry>
        </mxCell>
        <mxCell id="pBpDnZRo8oRSNYHJt4BO-66" value="" style="endArrow=none;html=1;rounded=0;entryX=1;entryY=1;entryDx=0;entryDy=0;strokeWidth=4;exitX=0.206;exitY=0.101;exitDx=0;exitDy=0;exitPerimeter=0;" parent="pBpDnZRo8oRSNYHJt4BO-102" source="pBpDnZRo8oRSNYHJt4BO-10" target="pBpDnZRo8oRSNYHJt4BO-28" edge="1">
          <mxGeometry width="50" height="50" relative="1" as="geometry">
            <mxPoint x="111.5" y="94" as="sourcePoint" />
            <mxPoint x="89.5" y="71" as="targetPoint" />
          </mxGeometry>
        </mxCell>
        <mxCell id="pBpDnZRo8oRSNYHJt4BO-67" value="" style="endArrow=none;html=1;rounded=0;entryX=0;entryY=1;entryDx=0;entryDy=0;strokeWidth=4;exitX=0.83;exitY=0.107;exitDx=0;exitDy=0;exitPerimeter=0;" parent="pBpDnZRo8oRSNYHJt4BO-102" source="pBpDnZRo8oRSNYHJt4BO-10" target="pBpDnZRo8oRSNYHJt4BO-30" edge="1">
          <mxGeometry width="50" height="50" relative="1" as="geometry">
            <mxPoint x="117" y="94" as="sourcePoint" />
            <mxPoint x="148" y="94" as="targetPoint" />
          </mxGeometry>
        </mxCell>
        <mxCell id="pBpDnZRo8oRSNYHJt4BO-68" value="" style="endArrow=none;html=1;rounded=0;strokeWidth=4;exitX=0.412;exitY=0.999;exitDx=0;exitDy=0;exitPerimeter=0;entryX=0.72;entryY=0.11;entryDx=0;entryDy=0;entryPerimeter=0;" parent="pBpDnZRo8oRSNYHJt4BO-102" source="pBpDnZRo8oRSNYHJt4BO-7" target="pBpDnZRo8oRSNYHJt4BO-31" edge="1">
          <mxGeometry width="50" height="50" relative="1" as="geometry">
            <mxPoint x="176" y="55" as="sourcePoint" />
            <mxPoint x="153" y="77" as="targetPoint" />
          </mxGeometry>
        </mxCell>
        <mxCell id="pBpDnZRo8oRSNYHJt4BO-69" value="" style="endArrow=none;html=1;rounded=0;entryX=0.212;entryY=0.951;entryDx=0;entryDy=0;entryPerimeter=0;strokeWidth=4;exitX=0.545;exitY=0.007;exitDx=0;exitDy=0;exitPerimeter=0;" parent="pBpDnZRo8oRSNYHJt4BO-102" source="pBpDnZRo8oRSNYHJt4BO-8" target="pBpDnZRo8oRSNYHJt4BO-35" edge="1">
          <mxGeometry width="50" height="50" relative="1" as="geometry">
            <mxPoint x="65" y="177" as="sourcePoint" />
            <mxPoint x="47" y="125" as="targetPoint" />
          </mxGeometry>
        </mxCell>
        <mxCell id="pBpDnZRo8oRSNYHJt4BO-70" value="" style="endArrow=none;html=1;rounded=0;entryX=0;entryY=1;entryDx=0;entryDy=0;strokeWidth=4;exitX=1;exitY=0;exitDx=0;exitDy=0;" parent="pBpDnZRo8oRSNYHJt4BO-102" source="pBpDnZRo8oRSNYHJt4BO-8" target="pBpDnZRo8oRSNYHJt4BO-36" edge="1">
          <mxGeometry width="50" height="50" relative="1" as="geometry">
            <mxPoint x="48" y="171" as="sourcePoint" />
            <mxPoint x="67" y="120" as="targetPoint" />
          </mxGeometry>
        </mxCell>
        <mxCell id="pBpDnZRo8oRSNYHJt4BO-71" value="" style="endArrow=none;html=1;rounded=0;entryX=0.039;entryY=0.731;entryDx=0;entryDy=0;strokeWidth=4;exitX=1.016;exitY=0.46;exitDx=0;exitDy=0;exitPerimeter=0;entryPerimeter=0;" parent="pBpDnZRo8oRSNYHJt4BO-102" source="pBpDnZRo8oRSNYHJt4BO-8" target="pBpDnZRo8oRSNYHJt4BO-33" edge="1">
          <mxGeometry width="50" height="50" relative="1" as="geometry">
            <mxPoint x="55" y="174" as="sourcePoint" />
            <mxPoint x="78" y="151" as="targetPoint" />
          </mxGeometry>
        </mxCell>
        <mxCell id="pBpDnZRo8oRSNYHJt4BO-72" value="" style="endArrow=none;html=1;rounded=0;strokeWidth=4;exitX=0.937;exitY=0.761;exitDx=0;exitDy=0;exitPerimeter=0;" parent="pBpDnZRo8oRSNYHJt4BO-102" source="pBpDnZRo8oRSNYHJt4BO-4" edge="1">
          <mxGeometry width="50" height="50" relative="1" as="geometry">
            <mxPoint x="29" y="110" as="sourcePoint" />
            <mxPoint x="50" y="126" as="targetPoint" />
          </mxGeometry>
        </mxCell>
        <mxCell id="pBpDnZRo8oRSNYHJt4BO-73" value="" style="endArrow=none;html=1;rounded=0;strokeWidth=4;exitX=0.114;exitY=0.813;exitDx=0;exitDy=0;exitPerimeter=0;entryX=0.883;entryY=0.19;entryDx=0;entryDy=0;entryPerimeter=0;" parent="pBpDnZRo8oRSNYHJt4BO-102" source="pBpDnZRo8oRSNYHJt4BO-10" target="pBpDnZRo8oRSNYHJt4BO-36" edge="1">
          <mxGeometry width="50" height="50" relative="1" as="geometry">
            <mxPoint x="116" y="126" as="sourcePoint" />
            <mxPoint x="79" y="131" as="targetPoint" />
          </mxGeometry>
        </mxCell>
        <mxCell id="pBpDnZRo8oRSNYHJt4BO-74" value="" style="endArrow=none;html=1;rounded=0;entryX=0.5;entryY=0;entryDx=0;entryDy=0;strokeWidth=4;exitX=0.5;exitY=1;exitDx=0;exitDy=0;" parent="pBpDnZRo8oRSNYHJt4BO-102" source="pBpDnZRo8oRSNYHJt4BO-29" target="pBpDnZRo8oRSNYHJt4BO-10" edge="1">
          <mxGeometry width="50" height="50" relative="1" as="geometry">
            <mxPoint x="116" y="31" as="sourcePoint" />
            <mxPoint x="116" y="63" as="targetPoint" />
          </mxGeometry>
        </mxCell>
        <mxCell id="pBpDnZRo8oRSNYHJt4BO-75" value="" style="endArrow=none;html=1;rounded=0;entryX=0.972;entryY=0.663;entryDx=0;entryDy=0;strokeWidth=4;exitX=0.004;exitY=0.452;exitDx=0;exitDy=0;exitPerimeter=0;entryPerimeter=0;" parent="pBpDnZRo8oRSNYHJt4BO-102" source="pBpDnZRo8oRSNYHJt4BO-12" target="pBpDnZRo8oRSNYHJt4BO-33" edge="1">
          <mxGeometry width="50" height="50" relative="1" as="geometry">
            <mxPoint x="58" y="181" as="sourcePoint" />
            <mxPoint x="110" y="164" as="targetPoint" />
          </mxGeometry>
        </mxCell>
        <mxCell id="pBpDnZRo8oRSNYHJt4BO-76" value="" style="endArrow=none;html=1;rounded=0;entryX=0.137;entryY=0.196;entryDx=0;entryDy=0;strokeWidth=4;exitX=0.892;exitY=0.808;exitDx=0;exitDy=0;exitPerimeter=0;entryPerimeter=0;" parent="pBpDnZRo8oRSNYHJt4BO-102" source="pBpDnZRo8oRSNYHJt4BO-10" target="pBpDnZRo8oRSNYHJt4BO-32" edge="1">
          <mxGeometry width="50" height="50" relative="1" as="geometry">
            <mxPoint x="116" y="126" as="sourcePoint" />
            <mxPoint x="116" y="155" as="targetPoint" />
          </mxGeometry>
        </mxCell>
        <mxCell id="pBpDnZRo8oRSNYHJt4BO-77" value="" style="endArrow=none;html=1;rounded=0;entryX=0.683;entryY=0.949;entryDx=0;entryDy=0;strokeWidth=4;exitX=0.451;exitY=0.039;exitDx=0;exitDy=0;exitPerimeter=0;entryPerimeter=0;" parent="pBpDnZRo8oRSNYHJt4BO-102" source="pBpDnZRo8oRSNYHJt4BO-12" target="pBpDnZRo8oRSNYHJt4BO-31" edge="1">
          <mxGeometry width="50" height="50" relative="1" as="geometry">
            <mxPoint x="174" y="180" as="sourcePoint" />
            <mxPoint x="121" y="163" as="targetPoint" />
          </mxGeometry>
        </mxCell>
        <mxCell id="pBpDnZRo8oRSNYHJt4BO-78" value="" style="endArrow=none;html=1;rounded=0;exitX=0.207;exitY=0.112;exitDx=0;exitDy=0;exitPerimeter=0;strokeWidth=4;" parent="pBpDnZRo8oRSNYHJt4BO-102" source="pBpDnZRo8oRSNYHJt4BO-9" edge="1">
          <mxGeometry width="50" height="50" relative="1" as="geometry">
            <mxPoint x="106" y="206" as="sourcePoint" />
            <mxPoint x="82" y="159" as="targetPoint" />
          </mxGeometry>
        </mxCell>
        <mxCell id="pBpDnZRo8oRSNYHJt4BO-79" value="" style="endArrow=none;html=1;rounded=0;entryX=0.165;entryY=0.167;entryDx=0;entryDy=0;strokeWidth=4;exitX=1;exitY=1;exitDx=0;exitDy=0;entryPerimeter=0;" parent="pBpDnZRo8oRSNYHJt4BO-102" source="pBpDnZRo8oRSNYHJt4BO-32" target="pBpDnZRo8oRSNYHJt4BO-12" edge="1">
          <mxGeometry width="50" height="50" relative="1" as="geometry">
            <mxPoint x="145" y="140.5" as="sourcePoint" />
            <mxPoint x="167" y="161.5" as="targetPoint" />
          </mxGeometry>
        </mxCell>
        <mxCell id="pBpDnZRo8oRSNYHJt4BO-80" value="" style="endArrow=none;html=1;rounded=0;exitX=0.782;exitY=0.083;exitDx=0;exitDy=0;exitPerimeter=0;strokeWidth=4;" parent="pBpDnZRo8oRSNYHJt4BO-102" source="pBpDnZRo8oRSNYHJt4BO-9" edge="1">
          <mxGeometry width="50" height="50" relative="1" as="geometry">
            <mxPoint x="110" y="199" as="sourcePoint" />
            <mxPoint x="129" y="159" as="targetPoint" />
          </mxGeometry>
        </mxCell>
        <mxCell id="pBpDnZRo8oRSNYHJt4BO-81" value="" style="endArrow=none;html=1;rounded=0;entryX=0.069;entryY=0.257;entryDx=0;entryDy=0;strokeWidth=4;entryPerimeter=0;" parent="pBpDnZRo8oRSNYHJt4BO-102" target="pBpDnZRo8oRSNYHJt4BO-11" edge="1">
          <mxGeometry width="50" height="50" relative="1" as="geometry">
            <mxPoint x="162" y="83" as="sourcePoint" />
            <mxPoint x="201" y="115" as="targetPoint" />
          </mxGeometry>
        </mxCell>
        <mxCell id="pBpDnZRo8oRSNYHJt4BO-82" value="" style="endArrow=none;html=1;rounded=0;entryX=0.074;entryY=0.786;entryDx=0;entryDy=0;strokeWidth=4;entryPerimeter=0;movable=0;resizable=0;rotatable=0;deletable=0;editable=0;locked=1;connectable=0;" parent="pBpDnZRo8oRSNYHJt4BO-102" target="pBpDnZRo8oRSNYHJt4BO-11" edge="1">
          <mxGeometry width="50" height="50" relative="1" as="geometry">
            <mxPoint x="162" y="126" as="sourcePoint" />
            <mxPoint x="201" y="115" as="targetPoint" />
          </mxGeometry>
        </mxCell>
      </root>
    </mxGraphModel>
  </diagram>
</mxfile>
